<svg width="40" height="40" viewBox="0 0 40 40" fill="none" xmlns="http://www.w3.org/2000/svg">
<g clip-path="url(#clip0_126_412)">
<path d="M30.625 0H9.375C4.19733 0 0 4.19733 0 9.375V30.625C0 35.8027 4.19733 40 9.375 40H30.625C35.8027 40 40 35.8027 40 30.625V9.375C40 4.19733 35.8027 0 30.625 0Z" fill="#242938"/>
<g clip-path="url(#clip1_126_412)">
<path d="M15.7435 30.5521C14.3867 29.3132 13.9907 26.7101 14.5559 24.8242C15.5361 26.0132 16.8942 26.3899 18.3009 26.6025C20.4726 26.9306 22.6053 26.8079 24.6227 25.8164C24.8535 25.7029 25.0667 25.5519 25.3189 25.399C25.5082 25.9476 25.5575 26.5014 25.4914 27.0651C25.3306 28.4378 24.6467 29.4982 23.5589 30.302C23.1239 30.6236 22.6637 30.911 22.2144 31.2141C20.8343 32.1459 20.4609 33.2385 20.9795 34.8276C20.9918 34.8666 21.0028 34.9053 21.0307 34.9998C20.326 34.6846 19.8113 34.2259 19.4192 33.6229C19.0049 32.9865 18.8078 32.2824 18.7975 31.5206C18.7923 31.1498 18.7923 30.7758 18.7424 30.4103C18.6205 29.5192 18.2017 29.1202 17.4128 29.0973C16.6031 29.0737 15.9627 29.5737 15.7928 30.3611C15.7798 30.4215 15.761 30.4812 15.7422 30.5514L15.7435 30.5521Z" fill="white"/>
<path d="M15.7435 30.5521C14.3867 29.3132 13.9907 26.7101 14.5559 24.8242C15.5361 26.0132 16.8942 26.3899 18.3009 26.6025C20.4726 26.9306 22.6053 26.8079 24.6227 25.8164C24.8535 25.7029 25.0667 25.5519 25.3189 25.399C25.5082 25.9476 25.5575 26.5014 25.4914 27.0651C25.3306 28.4378 24.6467 29.4982 23.5589 30.302C23.1239 30.6236 22.6637 30.911 22.2144 31.2141C20.8343 32.1459 20.4609 33.2385 20.9795 34.8276C20.9918 34.8666 21.0028 34.9053 21.0307 34.9998C20.326 34.6846 19.8113 34.2259 19.4192 33.6229C19.0049 32.9865 18.8078 32.2824 18.7975 31.5206C18.7923 31.1498 18.7923 30.7758 18.7424 30.4103C18.6205 29.5192 18.2017 29.1202 17.4128 29.0973C16.6031 29.0737 15.9627 29.5737 15.7928 30.3611C15.7798 30.4215 15.761 30.4812 15.7422 30.5514L15.7435 30.5521Z" fill="url(#paint0_linear_126_412)"/>
<path d="M8 24.5103C8 24.5103 12.0177 22.5552 16.0466 22.5552L19.0843 13.1646C19.198 12.7105 19.5301 12.4018 19.905 12.4018C20.2798 12.4018 20.6119 12.7105 20.7256 13.1646L23.7633 22.5552C28.535 22.5552 31.8099 24.5103 31.8099 24.5103C31.8099 24.5103 24.9855 5.93991 24.9722 5.90265C24.7763 5.35361 24.4457 5 23.9999 5H15.8107C15.365 5 15.0476 5.35361 14.8385 5.90265C14.8237 5.9392 8 24.5103 8 24.5103Z" fill="white"/>
</g>
</g>
<defs>
<linearGradient id="paint0_linear_126_412" x1="14.3067" y1="34.9998" x2="27.4023" y2="28.8054" gradientUnits="userSpaceOnUse">
<stop stop-color="#D83333"/>
<stop offset="1" stop-color="#F041FF"/>
</linearGradient>
<clipPath id="clip0_126_412">
<rect width="40" height="40" fill="white"/>
</clipPath>
<clipPath id="clip1_126_412">
<rect width="23.8583" height="30" fill="white" transform="translate(8 5)"/>
</clipPath>
</defs>
</svg>
