<svg width="1000" height="1000" viewBox="0 0 1000 1000" fill="none" xmlns="http://www.w3.org/2000/svg">
<rect width="1000" height="1000" fill="white"/>
<path d="M623.075 116.551C629.916 125.037 633.403 136.491 640.35 159.371L792.619 659.546C735.428 629.863 674.041 609.081 610.58 597.917L511.453 262.906C510.671 260.228 509.04 257.876 506.807 256.204C504.574 254.532 501.858 253.63 499.068 253.633C496.278 253.636 493.564 254.545 491.335 256.222C489.105 257.899 487.48 260.255 486.703 262.934L388.765 597.748C325.027 608.865 263.367 629.68 205.932 659.469L358.918 159.266C365.921 136.414 369.408 124.981 376.243 116.494C382.284 109.024 390.132 103.22 399.045 99.6335C409.121 95.5906 421.095 95.5906 444.994 95.5906H554.281C578.201 95.5906 590.175 95.5906 600.286 99.6617C609.205 103.248 617.047 109.063 623.075 116.551Z" fill="url(#paint0_linear_107_408)"/>
<path d="M641.286 683.333C616.185 704.813 566.08 719.452 508.375 719.452C437.57 719.452 378.191 697.395 362.448 667.73C356.823 684.732 355.557 704.18 355.557 716.626C355.557 716.626 351.852 777.622 394.286 820.055C394.286 814.818 395.317 809.633 397.322 804.795C399.326 799.956 402.264 795.56 405.967 791.858C409.67 788.155 414.067 785.218 418.906 783.214C423.744 781.211 428.93 780.18 434.167 780.181C471.925 780.181 471.904 813.109 471.875 839.862V842.225C471.875 882.816 496.675 917.593 531.943 932.26C526.508 921.093 523.69 908.834 523.703 896.415C523.703 857.687 546.414 843.294 572.837 826.538C593.854 813.221 617.197 798.413 633.264 768.727C641.935 752.732 646.467 734.821 646.447 716.626C646.457 705.328 644.716 694.097 641.286 683.333Z" fill="#FF5D01"/>
<path d="M641.286 683.333C616.185 704.813 566.08 719.452 508.375 719.452C437.57 719.452 378.191 697.395 362.448 667.73C356.823 684.732 355.557 704.18 355.557 716.626C355.557 716.626 351.852 777.622 394.286 820.055C394.286 814.818 395.317 809.633 397.322 804.795C399.326 799.956 402.264 795.56 405.967 791.858C409.67 788.155 414.067 785.218 418.906 783.214C423.744 781.211 428.93 780.18 434.167 780.181C471.925 780.181 471.904 813.109 471.875 839.862V842.225C471.875 882.816 496.675 917.593 531.943 932.26C526.508 921.093 523.69 908.834 523.703 896.415C523.703 857.687 546.414 843.294 572.837 826.538C593.854 813.221 617.197 798.413 633.264 768.727C641.935 752.732 646.467 734.821 646.447 716.626C646.457 705.328 644.716 694.097 641.286 683.333Z" fill="url(#paint1_linear_107_408)"/>
<defs>
<linearGradient id="paint0_linear_107_408" x1="670.857" y1="69.0638" x2="499.265" y2="659.54" gradientUnits="userSpaceOnUse">
<stop stop-color="#000014"/>
<stop offset="1" stop-color="#150426"/>
</linearGradient>
<linearGradient id="paint1_linear_107_408" x1="754.307" y1="508.754" x2="605.699" y2="819.859" gradientUnits="userSpaceOnUse">
<stop stop-color="#FF1639"/>
<stop offset="1" stop-color="#FF1639" stop-opacity="0"/>
</linearGradient>
</defs>
</svg>
