<svg width="1000" height="1000" viewBox="0 0 1000 1000" fill="none" xmlns="http://www.w3.org/2000/svg">
<rect width="1000" height="1000" fill="white"/>
<g clip-path="url(#clip0_107_408)">
<path d="M325.34 434.753C325.34 444.596 326.405 452.578 328.267 458.431C330.395 464.284 333.056 470.669 336.78 477.586C338.111 479.714 338.643 481.843 338.643 483.705C338.643 486.366 337.046 489.026 333.588 491.686L316.827 502.86C314.433 504.457 312.038 505.255 309.91 505.255C307.249 505.255 304.589 503.925 301.928 501.53C298.204 497.539 295.011 493.283 292.351 489.026C289.69 484.503 287.03 479.448 284.103 473.329C263.352 497.806 237.279 510.044 205.886 510.044C183.538 510.044 165.713 503.659 152.677 490.888C139.64 478.118 132.989 461.091 132.989 439.807C132.989 417.194 140.971 398.836 157.199 385.002C173.428 371.168 194.978 364.25 222.381 364.25C231.426 364.25 240.738 365.049 250.582 366.379C260.425 367.709 270.535 369.837 281.177 372.232V352.81C281.177 332.591 276.92 318.491 268.673 310.243C260.159 301.996 245.793 298.005 225.307 298.005C215.996 298.005 206.418 299.069 196.574 301.464C186.731 303.858 177.153 306.785 167.841 310.509C163.585 312.372 160.392 313.436 158.53 313.968C156.667 314.5 155.337 314.766 154.273 314.766C150.548 314.766 148.686 312.105 148.686 306.519V293.482C148.686 289.226 149.218 286.033 150.548 284.171C151.879 282.308 154.273 280.446 157.998 278.584C167.309 273.795 178.483 269.804 191.519 266.612C204.556 263.153 218.39 261.557 233.023 261.557C264.682 261.557 287.828 268.74 302.727 283.106C317.359 297.473 324.808 319.289 324.808 348.554V434.753H325.34ZM217.326 475.192C226.105 475.192 235.151 473.595 244.729 470.403C254.306 467.21 262.82 461.357 270.003 453.376C274.26 448.321 277.452 442.734 279.048 436.349C280.645 429.964 281.709 422.248 281.709 413.203V402.029C273.994 400.167 265.746 398.57 257.233 397.506C248.719 396.442 240.472 395.91 232.224 395.91C214.399 395.91 201.363 399.369 192.584 406.552C183.804 413.735 179.547 423.845 179.547 437.147C179.547 449.651 182.74 458.963 189.391 465.348C195.776 471.999 205.088 475.192 217.326 475.192ZM430.961 503.925C426.172 503.925 422.979 503.126 420.851 501.264C418.723 499.668 416.86 495.943 415.264 490.888L352.743 285.235C351.147 279.914 350.349 276.455 350.349 274.593C350.349 270.336 352.477 267.942 356.734 267.942H382.806C387.861 267.942 391.32 268.74 393.182 270.602C395.311 272.199 396.907 275.923 398.503 280.978L443.199 457.1L484.702 280.978C486.032 275.657 487.628 272.199 489.757 270.602C491.885 269.006 495.61 267.942 500.399 267.942H521.682C526.737 267.942 530.196 268.74 532.324 270.602C534.453 272.199 536.315 275.923 537.379 280.978L579.414 459.229L625.44 280.978C627.037 275.657 628.899 272.199 630.761 270.602C632.89 269.006 636.348 267.942 641.137 267.942H665.879C670.136 267.942 672.53 270.07 672.53 274.593C672.53 275.923 672.264 277.253 671.998 278.85C671.732 280.446 671.2 282.574 670.136 285.501L606.019 491.154C604.423 496.475 602.56 499.934 600.432 501.53C598.304 503.126 594.845 504.191 590.322 504.191H567.442C562.387 504.191 558.929 503.392 556.8 501.53C554.672 499.668 552.81 496.209 551.746 490.888L510.508 319.289L469.537 490.622C468.207 495.943 466.611 499.402 464.482 501.264C462.354 503.126 458.629 503.925 453.841 503.925H430.961ZM772.83 511.108C758.995 511.108 745.161 509.512 731.859 506.319C718.556 503.126 708.181 499.668 701.263 495.677C697.007 493.283 694.08 490.622 693.016 488.228C691.952 485.833 691.42 483.173 691.42 480.779V467.21C691.42 461.623 693.548 458.963 697.539 458.963C699.135 458.963 700.731 459.229 702.327 459.761C703.924 460.293 706.318 461.357 708.979 462.421C718.024 466.412 727.868 469.605 738.244 471.733C748.886 473.861 759.261 474.926 769.903 474.926C786.664 474.926 799.7 471.999 808.746 466.146C817.791 460.293 822.58 451.78 822.58 440.872C822.58 433.422 820.186 427.303 815.397 422.248C810.608 417.194 801.563 412.671 788.526 408.414L749.95 396.442C730.528 390.323 716.162 381.277 707.382 369.305C698.603 357.599 694.08 344.563 694.08 330.729C694.08 319.555 696.474 309.711 701.263 301.198C706.052 292.684 712.437 285.235 720.419 279.382C728.4 273.263 737.446 268.74 748.087 265.547C758.729 262.355 769.903 261.025 781.609 261.025C787.462 261.025 793.581 261.291 799.434 262.089C805.553 262.887 811.14 263.951 816.727 265.015C822.048 266.346 827.103 267.676 831.892 269.272C836.681 270.868 840.405 272.465 843.066 274.061C846.79 276.189 849.451 278.318 851.047 280.712C852.643 282.84 853.442 285.767 853.442 289.492V301.996C853.442 307.583 851.313 310.509 847.323 310.509C845.194 310.509 841.736 309.445 837.213 307.317C822.048 300.399 805.021 296.941 786.132 296.941C770.967 296.941 758.995 299.335 750.748 304.39C742.5 309.445 738.244 317.16 738.244 328.068C738.244 335.518 740.904 341.903 746.225 346.957C751.546 352.012 761.39 357.067 775.49 361.59L813.269 373.562C832.424 379.681 846.258 388.195 854.506 399.102C862.753 410.01 866.744 422.515 866.744 436.349C866.744 447.789 864.349 458.165 859.827 467.21C855.038 476.256 848.653 484.237 840.405 490.622C832.158 497.273 822.314 502.062 810.874 505.521C798.902 509.245 786.398 511.108 772.83 511.108Z" fill="#252F3E"/>
<path d="M823.113 640.406C735.584 705.055 608.414 739.375 499.069 739.375C345.827 739.375 207.749 682.708 103.459 588.527C95.2114 581.078 102.661 570.968 112.504 576.821C225.308 642.269 364.45 681.909 508.381 681.909C605.487 681.909 712.172 661.69 810.343 620.187C824.975 613.536 837.479 629.764 823.113 640.406Z" fill="#FF9900"/>
<path d="M859.561 598.903C848.387 584.536 785.6 591.986 757.133 595.444C748.619 596.509 747.289 589.059 755.004 583.472C805.021 548.354 887.229 558.464 896.807 570.17C906.385 582.142 894.146 664.35 847.322 703.725C840.139 709.844 833.222 706.652 836.415 698.67C847.056 672.332 870.734 613.003 859.561 598.903Z" fill="#FF9900"/>
</g>
<defs>
<clipPath id="clip0_107_408">
<rect width="800" height="478.4" fill="white" transform="translate(100 261)"/>
</clipPath>
</defs>
</svg>
