<svg width="40" height="40" viewBox="0 0 40 40" fill="none" xmlns="http://www.w3.org/2000/svg">
<g clip-path="url(#clip0_2712_58)">
<mask id="mask0_2712_58" style="mask-type:luminance" maskUnits="userSpaceOnUse" x="0" y="0" width="40" height="40">
<path d="M40 0H0V40H40V0Z" fill="white"/>
</mask>
<g mask="url(#mask0_2712_58)">
<path d="M30.625 0H9.375C4.19733 0 0 4.19733 0 9.375V30.625C0 35.8027 4.19733 40 9.375 40H30.625C35.8027 40 40 35.8027 40 30.625V9.375C40 4.19733 35.8027 0 30.625 0Z" fill="#242938"/>
<path d="M23.5009 11.8719C20.4786 11.8719 17.4995 13.1717 15.2252 15.7273V3.125H10.7246V24.3433C10.7246 31.2311 16.2984 36.8147 23.1744 36.8147C30.0501 36.8147 35.624 31.2311 35.624 24.3433C35.624 17.4556 30.3767 11.8719 23.5009 11.8719ZM23.1744 32.0112C18.9467 32.0112 15.5196 28.5781 15.5196 24.3433C15.5196 20.1086 18.9467 16.6753 23.1744 16.6753C27.4017 16.6753 30.8289 20.1084 30.8289 24.3433C30.8289 28.5783 27.4017 32.0112 23.1744 32.0112Z" fill="white"/>
<path d="M7.45361 30.6465C5.75317 30.6465 4.375 32.0273 4.375 33.7304C4.375 35.4335 5.7533 36.8143 7.45361 36.8143C9.15394 36.8143 10.5322 35.4335 10.5322 33.7304C10.5322 32.0273 9.15394 30.6465 7.45361 30.6465Z" fill="#0000FF"/>
</g>
</g>
<defs>
<clipPath id="clip0_2712_58">
<rect width="40" height="40" fill="white"/>
</clipPath>
</defs>
</svg>
