<svg width="256" height="256" viewBox="0 0 256 256" fill="none" xmlns="http://www.w3.org/2000/svg">
<g clip-path="url(#clip0_121_386)">
<path d="M196 0H60C26.8629 0 0 26.8629 0 60V196C0 229.137 26.8629 256 60 256H196C229.137 256 256 229.137 256 196V60C256 26.8629 229.137 0 196 0Z" fill="#242938"/>
<path d="M150.412 75.98C131.069 75.98 112.003 84.2991 97.4475 100.655V20H68.6436V155.797C68.6436 199.879 104.316 235.614 148.322 235.614C192.327 235.614 228 199.879 228 155.797C228 111.716 194.417 75.98 150.412 75.98ZM148.322 204.872C121.265 204.872 99.3318 182.9 99.3318 155.797C99.3318 128.695 121.265 106.722 148.322 106.722C175.377 106.722 197.311 128.694 197.311 155.797C197.311 182.901 175.377 204.872 148.322 204.872Z" fill="white"/>
<path d="M47.7031 196.139C36.8203 196.139 28 204.976 28 215.876C28 226.776 36.8211 235.613 47.7031 235.613C58.5852 235.613 67.4062 226.776 67.4062 215.876C67.4062 204.976 58.5852 196.139 47.7031 196.139Z" fill="#0000FF"/>
</g>
<defs>
<clipPath id="clip0_121_386">
<rect width="256" height="256" fill="white"/>
</clipPath>
</defs>
</svg>
