<svg width="40" height="40" viewBox="0 0 40 40" fill="none" xmlns="http://www.w3.org/2000/svg">
<g clip-path="url(#clip0_2712_24)">
<mask id="mask0_2712_24" style="mask-type:luminance" maskUnits="userSpaceOnUse" x="0" y="0" width="40" height="40">
<path d="M40 0H0V40H40V0Z" fill="white"/>
</mask>
<g mask="url(#mask0_2712_24)">
<path d="M30.625 0H9.375C4.19733 0 0 4.19733 0 9.375V30.625C0 35.8027 4.19733 40 9.375 40H30.625C35.8027 40 40 35.8027 40 30.625V9.375C40 4.19733 35.8027 0 30.625 0Z" fill="#242938"/>
<mask id="mask1_2712_24" style="mask-type:luminance" maskUnits="userSpaceOnUse" x="3" y="3" width="34" height="34">
<path d="M36.875 3.125H3.125V36.875H36.875V3.125Z" fill="white"/>
</mask>
<g mask="url(#mask1_2712_24)">
<path d="M11.7305 27.3821H34.0656V21.2017L29.8226 18.7686L29.0906 18.4521L11.7305 18.5712V27.3821Z" fill="white"/>
<path d="M26.3408 26.5617C26.5486 25.8499 26.4695 25.197 26.1236 24.7119C25.8072 24.2667 25.2724 24.0094 24.6302 23.9799L12.4537 23.8217C12.3746 23.8217 12.3061 23.7816 12.266 23.7225C12.2259 23.6634 12.2164 23.5855 12.2365 23.5053C12.2765 23.3861 12.3947 23.2975 12.5233 23.288L24.8083 23.1299C26.2638 23.0602 27.8458 21.8831 28.3984 20.4403L29.1009 18.6105C29.1319 18.5353 29.1392 18.4527 29.122 18.3731C28.3309 14.7925 25.1353 12.1221 21.3173 12.1221C17.7947 12.1221 14.8099 14.397 13.7404 17.5538C13.0475 17.0391 12.1584 16.7627 11.2176 16.8513C9.52591 17.02 8.15904 18.3742 8.00294 20.0659C7.96194 20.4867 7.9919 20.9113 8.09154 21.322C6.76068 21.3581 5.49657 21.9127 4.56876 22.8675C3.64094 23.8224 3.12288 25.1017 3.12501 26.4331C3.12501 26.6799 3.1461 26.9288 3.17458 27.1745C3.19568 27.2938 3.29376 27.3824 3.41188 27.3824H25.8852C25.9498 27.3811 26.0124 27.3594 26.0639 27.3203C26.1155 27.2813 26.1533 27.227 26.172 27.165L26.3408 26.5617Z" fill="#F38020"/>
<path d="M30.2179 18.7373L29.8804 18.7479C29.8012 18.7479 29.7328 18.807 29.701 18.885L29.2265 20.5367C29.0187 21.2486 29.0978 21.9014 29.4437 22.3865C29.7601 22.8317 30.2948 23.089 30.9371 23.1186L33.5285 23.2767C33.6076 23.2767 33.6762 23.3168 33.7162 23.3759C33.7564 23.435 33.7659 23.5236 33.7457 23.5931C33.7057 23.7123 33.5876 23.8009 33.4589 23.8104L30.7589 23.9686C29.295 24.0382 27.7214 25.2153 27.1687 26.6581L26.9704 27.1621C26.9304 27.2614 27 27.3604 27.1076 27.3604H36.3857C36.4393 27.3612 36.4918 27.3442 36.5348 27.3118C36.5778 27.2796 36.6087 27.234 36.6229 27.1821C36.7875 26.5971 36.8721 25.9926 36.8751 25.385C36.8701 23.622 36.1667 21.9326 34.919 20.687C33.6714 19.4412 31.9809 18.7395 30.2179 18.7373Z" fill="#FAAE40"/>
</g>
</g>
</g>
<defs>
<clipPath id="clip0_2712_24">
<rect width="40" height="40" fill="white"/>
</clipPath>
</defs>
</svg>
