<svg width="256" height="256" viewBox="0 0 256 256" fill="none" xmlns="http://www.w3.org/2000/svg">
<g clip-path="url(#clip0_121_386)">
<path d="M196 0H60C26.8629 0 0 26.8629 0 60V196C0 229.137 26.8629 256 60 256H196C229.137 256 256 229.137 256 196V60C256 26.8629 229.137 0 196 0Z" fill="#242938"/>
<g clip-path="url(#clip1_121_386)">
<path d="M75.0801 175.25H218.025V135.695L190.87 120.123L186.185 118.098L75.0801 118.86V175.25Z" fill="white"/>
<path d="M168.581 169.998C169.911 165.442 169.405 161.264 167.191 158.159C165.166 155.31 161.743 153.663 157.633 153.474L79.7038 152.462C79.1975 152.462 78.7588 152.205 78.5023 151.827C78.2458 151.449 78.185 150.95 78.3133 150.437C78.5698 149.674 79.3258 149.107 80.1493 149.046L158.773 148.034C168.088 147.588 178.213 140.055 181.75 130.821L186.246 119.11C186.444 118.629 186.491 118.1 186.381 117.591C181.318 94.6752 160.866 77.5842 136.431 77.5842C113.886 77.5842 94.7833 92.144 87.9388 112.347C83.504 109.053 77.8138 107.284 71.7928 107.851C60.9658 108.931 52.2178 117.598 51.2188 128.425C50.9564 131.118 51.1481 133.835 51.7858 136.464C43.2683 136.695 35.178 140.244 29.24 146.355C23.302 152.466 19.9864 160.654 20 169.175C20 170.754 20.135 172.347 20.3173 173.92C20.4523 174.683 21.08 175.25 21.836 175.25H165.665C166.079 175.242 166.479 175.103 166.809 174.853C167.139 174.603 167.381 174.256 167.501 173.859L168.581 169.998Z" fill="#F38020"/>
<path d="M193.394 119.92L191.234 119.988C190.727 119.988 190.289 120.366 190.086 120.865L187.049 131.436C185.719 135.992 186.225 140.17 188.439 143.275C190.464 146.124 193.886 147.771 197.997 147.96L214.582 148.972C215.088 148.972 215.527 149.229 215.783 149.607C216.04 149.985 216.101 150.552 215.972 150.997C215.716 151.76 214.96 152.327 214.136 152.388L196.856 153.4C187.487 153.846 177.416 161.379 173.879 170.613L172.61 173.839C172.354 174.474 172.799 175.108 173.488 175.108H232.868C233.211 175.113 233.547 175.004 233.822 174.797C234.097 174.591 234.295 174.299 234.386 173.967C235.439 170.223 235.981 166.354 236 162.465C235.968 151.182 231.466 140.37 223.481 132.398C215.496 124.425 204.677 119.934 193.394 119.92Z" fill="#FAAE40"/>
</g>
</g>
<defs>
<clipPath id="clip0_121_386">
<rect width="256" height="256" fill="white"/>
</clipPath>
<clipPath id="clip1_121_386">
<rect width="216" height="216" fill="white" transform="translate(20 20)"/>
</clipPath>
</defs>
</svg>
