<svg width="40" height="40" viewBox="0 0 40 40" fill="none" xmlns="http://www.w3.org/2000/svg">
<g clip-path="url(#clip0_126_412)">
<path d="M30.625 0H9.375C4.19733 0 0 4.19733 0 9.375V30.625C0 35.8027 4.19733 40 9.375 40H30.625C35.8027 40 40 35.8027 40 30.625V9.375C40 4.19733 35.8027 0 30.625 0Z" fill="#242938"/>
<path d="M15 35C17.76 35 20 32.76 20 30V25H15C12.24 25 10 27.24 10 30C10 32.76 12.24 35 15 35Z" fill="#0ACF83"/>
<path d="M10 20C10 17.24 12.24 15 15 15H20V25H15C12.24 25 10 22.76 10 20Z" fill="#A259FF"/>
<path d="M10 10C10 7.24 12.24 5 15 5H20V15H15C12.24 15 10 12.76 10 10Z" fill="#F24E1E"/>
<path d="M20 5H25C27.76 5 30 7.24 30 10C30 12.76 27.76 15 25 15H20V5Z" fill="#FF7262"/>
<path d="M30 20C30 22.76 27.76 25 25 25C22.24 25 20 22.76 20 20C20 17.24 22.24 15 25 15C27.76 15 30 17.24 30 20Z" fill="#1ABCFE"/>
</g>
<defs>
<clipPath id="clip0_126_412">
<rect width="40" height="40" fill="white"/>
</clipPath>
</defs>
</svg>
