<svg width="40" height="40" viewBox="0 0 40 40" fill="none" xmlns="http://www.w3.org/2000/svg">
<rect width="40" height="40" rx="5" fill="#242938"/>
<rect width="36" height="14" transform="translate(2 13)" fill="#242938"/>
<path d="M22.5687 13.9694L22.6478 14.0241C23.5767 14.6603 24.2428 15.5328 24.681 16.5871C24.7862 16.7507 24.7161 16.8416 24.5057 16.8961L24.1497 16.9906C23.3448 17.2056 22.7062 17.3864 21.9119 17.6015L21.4588 17.7238C21.2957 17.7657 21.2507 17.7481 21.0772 17.5432L21.0527 17.5141C20.8053 17.2233 20.6199 17.0291 20.2921 16.8557L20.2289 16.8234C19.1247 16.2599 18.0555 16.4235 17.0564 17.0961C15.8645 17.8958 15.251 19.0774 15.2685 20.5497C15.2861 22.0038 16.2501 23.2035 17.6348 23.4034C18.8267 23.5671 19.8258 23.1308 20.6145 22.2038C20.7723 22.0038 20.9125 21.7857 21.0877 21.5312H17.705C17.3369 21.5312 17.2493 21.295 17.372 20.986L17.4327 20.8376C17.658 20.2941 18.0074 19.5128 18.2343 19.0661L18.2838 18.97C18.3444 18.861 18.4675 18.7138 18.7041 18.7138H24.3448C24.5982 17.8815 25.0092 17.095 25.5574 16.3508C26.837 14.6058 28.3794 13.6969 30.4652 13.3153C32.2531 12.988 33.9358 13.1698 35.4607 14.2423C36.8454 15.2238 37.7043 16.5508 37.9321 18.2957C38.2301 20.7496 37.5465 22.7491 35.9164 24.4578C34.7596 25.6756 33.3398 26.439 31.7097 26.7844C31.2365 26.8753 30.7632 26.8935 30.3075 26.948C28.7125 26.9116 27.2577 26.439 26.0307 25.3484C25.1678 24.5748 24.5733 23.6241 24.2779 22.5172C24.0707 22.951 23.8242 23.3633 23.5418 23.7488C22.2797 25.4757 20.6322 26.5481 18.5464 26.839C16.8286 27.0752 15.2336 26.7298 13.8313 25.6392C12.5343 24.6213 11.7981 23.2762 11.6052 21.604C11.3774 19.6226 11.9383 17.8413 13.0952 16.2781C14.3397 14.5876 15.9873 13.5152 18.003 13.1335C19.6201 12.8302 21.1696 13.0172 22.5688 13.9694M30.9069 16.5741L30.8508 16.5871C29.2207 16.9688 28.169 18.0412 27.7834 19.7499C27.4679 21.1677 28.134 22.6037 29.396 23.1854C30.36 23.6216 31.324 23.5671 32.253 23.0763C33.6377 22.3311 34.3914 21.1677 34.4791 19.6045C34.4615 19.3682 34.4615 19.1864 34.4264 19.0046C34.1145 17.2254 32.5516 16.2101 30.9069 16.5741ZM10.1855 19.8953C10.2556 19.8953 10.2907 19.9498 10.2907 20.0225L10.2556 20.4588C10.2556 20.5315 10.1855 20.586 10.1329 20.586L6.31184 20.5679C6.24174 20.5679 6.22423 20.5133 6.25925 20.4588L6.50464 20.0044C6.53972 19.9498 6.60982 19.8953 6.67993 19.8953H10.1855ZM10.5711 18.223C10.6412 18.223 10.6763 18.2776 10.6588 18.3321L10.5185 18.7684C10.501 18.8411 10.4309 18.8774 10.3608 18.8774L2.0701 18.8956C2 18.8956 1.98249 18.8592 2.01751 18.8047L2.38559 18.3139C2.42068 18.2594 2.50829 18.223 2.57839 18.223H10.5711ZM11.4826 16.5507C11.5527 16.5507 11.5702 16.6053 11.5351 16.6598L11.2372 17.1324C11.2021 17.1869 11.1145 17.2415 11.0619 17.2415L4.71687 17.2233C4.6467 17.2233 4.62919 17.1869 4.66421 17.1324L5.03229 16.6417C5.06738 16.5871 5.15499 16.5507 5.22509 16.5507H11.4826Z" fill="#00AED9"/>
</svg>
