<svg width="40" height="40" viewBox="0 0 40 40" fill="none" xmlns="http://www.w3.org/2000/svg">
<g clip-path="url(#clip0_2712_41)">
<mask id="mask0_2712_41" style="mask-type:luminance" maskUnits="userSpaceOnUse" x="0" y="0" width="40" height="40">
<path d="M40 0H0V40H40V0Z" fill="white"/>
</mask>
<g mask="url(#mask0_2712_41)">
<path d="M30.625 0H9.375C4.19733 0 0 4.19733 0 9.375V30.625C0 35.8027 4.19733 40 9.375 40H30.625C35.8027 40 40 35.8027 40 30.625V9.375C40 4.19733 35.8027 0 30.625 0Z" fill="#191919"/>
<path d="M37.168 17.2111L22.7889 2.83198L22.2578 2.30083L21.6634 2.06055H18.8053L18.2109 2.31348L17.6798 2.83198L3.30073 17.2111L2.76958 17.7422L2.5293 18.3366V21.1947L2.78223 21.7891L3.30073 22.3202L17.6798 36.6992L18.2109 37.2305L18.8053 37.4706H21.6634L22.2578 37.2178L22.7889 36.6992L37.168 22.3202L37.6992 21.7891L37.9394 21.1947V18.3366L37.6866 17.7422L37.168 17.2111Z" fill="#191919"/>
<path d="M18.957 34.1577V27.2527L19.1341 27.063H21.3347L21.5117 27.2527V34.1577L21.3347 34.3348H19.1341L18.957 34.1577ZM18.957 12.2793V5.37431L19.1341 5.19727H21.3347L21.5117 5.37431V12.2793L21.3347 12.469H19.1341L18.957 12.2793ZM13.1523 29.0359H12.8488L11.3312 27.5184V27.2274L13.3547 25.204H14.9481L15.1631 25.4316V27.0251L13.1397 29.0485L13.1523 29.0359ZM11.3312 12.3805V12.077L12.8488 10.5594H13.1523L15.1631 12.5828V14.1763L14.9481 14.3913H13.3547L11.3312 12.3805ZM5.26094 18.476H13.0259L13.2029 18.6657V20.8663L13.0259 21.0434H5.26094L5.05859 20.8663V18.6657L5.2483 18.476H5.26094Z" fill="#05BDBA"/>
<path d="M24.3562 24.3435H22.1558L21.9661 24.1538V19.0195C21.9661 18.0962 21.6119 17.3881 20.5117 17.3754C19.9427 17.3501 19.285 17.3754 18.602 17.4007L18.4883 17.5018V24.1538L18.3112 24.3435H16.1108L15.9336 24.1538V15.3772L16.1108 15.1875H21.0428C21.5006 15.1859 21.9542 15.2746 22.3777 15.4486C22.8011 15.6226 23.1859 15.8785 23.5102 16.2016C23.8345 16.5248 24.0917 16.9087 24.2673 17.3315C24.443 17.7543 24.5333 18.2076 24.5333 18.6652V24.1538L24.3436 24.3435H24.3562Z" fill="white"/>
<path d="M35.2077 21.0556H27.4427L27.2656 20.8658V18.6653L27.4427 18.4883H35.2077L35.3973 18.6653V20.8658L35.2077 21.0556Z" fill="#05BDBA"/>
</g>
</g>
<defs>
<clipPath id="clip0_2712_41">
<rect width="40" height="40" fill="white"/>
</clipPath>
</defs>
</svg>
