<svg width="256" height="256" viewBox="0 0 256 256" fill="none" xmlns="http://www.w3.org/2000/svg">
<g clip-path="url(#clip0_121_386)">
<path d="M196 0H60C26.8629 0 0 26.8629 0 60V196C0 229.137 26.8629 256 60 256H196C229.137 256 256 229.137 256 196V60C256 26.8629 229.137 0 196 0Z" fill="#191919"/>
<path d="M237.875 110.151L145.849 18.1247L142.45 14.7253L138.646 13.1875H120.354L116.55 14.8063L113.151 18.1247L21.1247 110.151L17.7253 113.55L16.1875 117.354V135.646L17.8063 139.45L21.1247 142.849L113.151 234.875L116.55 238.275L120.354 239.812H138.646L142.45 238.194L145.849 234.875L237.875 142.849L241.275 139.45L242.812 135.646V117.354L241.194 113.55L237.875 110.151Z" fill="#191919"/>
<path d="M121.325 218.607V174.415L122.458 173.201H136.542L137.675 174.415V218.607L136.542 219.74H122.458L121.325 218.607ZM121.325 78.585V34.3931L122.458 33.26H136.542L137.675 34.3931V78.585L136.542 79.7991H122.458L121.325 78.585ZM84.175 185.827H82.2325L72.52 176.115V174.253L85.47 161.303H95.6681L97.0441 162.76V172.958L84.0941 185.908L84.175 185.827ZM72.52 79.2325V77.29L82.2325 67.5775H84.175L97.0441 80.5275V90.7256L95.6681 92.1016H85.47L72.52 79.2325ZM33.67 118.244H83.3656L84.4987 119.458V133.542L83.3656 134.675H33.67L32.375 133.542V119.458L33.5891 118.244H33.67Z" fill="#05BDBA"/>
<path d="M155.886 155.799H141.803L140.589 154.585V121.725C140.589 115.816 138.322 111.284 131.281 111.203C127.639 111.041 123.43 111.203 119.059 111.365L118.331 112.012V154.585L117.198 155.799H103.115L101.981 154.585V98.4146L103.115 97.2006H134.68C137.61 97.1899 140.513 97.7578 143.223 98.8716C145.933 99.9854 148.396 101.623 150.471 103.691C152.547 105.759 154.193 108.216 155.317 110.922C156.441 113.628 157.019 116.529 157.019 119.458V154.585L155.805 155.799H155.886Z" fill="white"/>
<path d="M225.33 134.756H175.634L174.501 133.541V119.458L175.634 118.325H225.33L226.544 119.458V133.541L225.33 134.756Z" fill="#05BDBA"/>
</g>
<defs>
<clipPath id="clip0_121_386">
<rect width="256" height="256" fill="white"/>
</clipPath>
</defs>
</svg>
