<svg width="40" height="40" viewBox="0 0 40 40" fill="none" xmlns="http://www.w3.org/2000/svg">
<g clip-path="url(#clip0_2712_66)">
<mask id="mask0_2712_66" style="mask-type:luminance" maskUnits="userSpaceOnUse" x="0" y="0" width="40" height="40">
<path d="M40 0H0V40H40V0Z" fill="white"/>
</mask>
<g mask="url(#mask0_2712_66)">
<path d="M30.625 0H9.375C4.19733 0 0 4.19733 0 9.375V30.625C0 35.8027 4.19733 40 9.375 40H30.625C35.8027 40 40 35.8027 40 30.625V9.375C40 4.19733 35.8027 0 30.625 0Z" fill="#242938"/>
<path fill-rule="evenodd" clip-rule="evenodd" d="M6.51161 26.2909C6.34305 26.0253 6.25242 25.718 6.25005 25.4036C6.24767 25.0892 6.33363 24.7806 6.49816 24.5125L19.138 3.92738C19.8409 2.78236 21.5384 2.88249 22.1016 4.102L33.6484 29.1105C34.0767 30.0384 33.5836 31.1303 32.6033 31.4241L14.6415 36.8041C14.2898 36.9095 13.9133 36.897 13.5693 36.7689C13.2253 36.6408 12.9327 36.4038 12.7361 36.0942L6.51161 26.2909ZM20.5959 9.94636C20.7178 9.34063 21.5489 9.25322 21.7944 9.82045L29.7592 28.2216C29.7945 28.3033 29.8122 28.3916 29.8109 28.4806C29.8097 28.5697 29.7895 28.6573 29.7519 28.7381C29.7142 28.8188 29.6598 28.8906 29.5923 28.9488C29.5247 29.0069 29.4456 29.0502 29.3602 29.0756L16.95 32.7745C16.4939 32.9105 16.0569 32.5125 16.1506 32.0464L20.5959 9.94636Z" fill="#F7FAFC"/>
</g>
</g>
<defs>
<clipPath id="clip0_2712_66">
<rect width="40" height="40" fill="white"/>
</clipPath>
</defs>
</svg>
