<svg width="256" height="256" viewBox="0 0 256 256" fill="none" xmlns="http://www.w3.org/2000/svg">
<g clip-path="url(#clip0_121_386)">
<path d="M196 0H60C26.8629 0 0 26.8629 0 60V196C0 229.137 26.8629 256 60 256H196C229.137 256 256 229.137 256 196V60C256 26.8629 229.137 0 196 0Z" fill="#242938"/>
<path fill-rule="evenodd" clip-rule="evenodd" d="M41.6743 168.262C40.5955 166.562 40.0155 164.595 40.0003 162.583C39.9851 160.571 40.5352 158.596 41.5882 156.88L122.483 25.1352C126.982 17.8071 137.846 18.4479 141.45 26.2528L215.35 186.307C218.091 192.246 214.935 199.234 208.661 201.114L93.7057 235.546C91.4548 236.221 89.045 236.141 86.8433 235.321C84.6417 234.501 82.7691 232.984 81.511 231.003L41.6743 168.262ZM131.814 63.6567C132.594 59.78 137.913 59.2206 139.484 62.8509L190.459 180.618C190.685 181.141 190.798 181.706 190.79 182.276C190.782 182.846 190.653 183.407 190.412 183.924C190.171 184.44 189.823 184.9 189.391 185.272C188.958 185.644 188.452 185.921 187.905 186.084L108.48 209.757C105.561 210.627 102.764 208.08 103.364 205.097L131.814 63.6567Z" fill="#F7FAFC"/>
</g>
<defs>
<clipPath id="clip0_121_386">
<rect width="256" height="256" fill="white"/>
</clipPath>
</defs>
</svg>
