<svg width="790" height="900" viewBox="0 0 790 900" fill="none" xmlns="http://www.w3.org/2000/svg">
<path d="M689.714 176.733C689.095 172.233 685.153 169.743 681.895 169.468C657.872 167.663 633.849 165.872 609.824 164.096C609.824 164.096 562.029 116.646 556.783 111.394C551.534 106.145 541.282 107.741 537.303 108.912C536.718 109.085 526.861 112.127 510.556 117.173C494.59 71.2295 466.413 29.0097 416.842 29.0097C415.473 29.0097 414.065 29.0652 412.656 29.1453C398.558 10.5011 381.095 2.40112 366.01 2.40112C250.536 2.40112 195.368 146.756 178.071 220.112C133.2 234.016 101.324 243.9 97.2525 245.179C72.2066 253.036 71.4144 253.825 68.1257 277.425C65.6507 295.293 0.117188 802.094 0.117188 802.094L510.769 897.772L787.457 837.915C787.457 837.915 690.325 181.233 689.714 176.733ZM482.332 125.901L439.123 139.275C439.138 136.23 439.154 133.234 439.154 129.958C439.154 101.404 435.19 78.4141 428.832 60.1891C454.374 63.3946 471.384 92.4566 482.332 125.901ZM397.147 65.8511C404.248 83.6446 408.865 109.181 408.865 143.639C408.865 145.402 408.85 147.014 408.834 148.645C380.734 157.349 350.199 166.799 319.596 176.28C336.779 109.963 368.988 77.9333 397.147 65.8511ZM362.839 33.3741C367.823 33.3741 372.844 35.0662 377.649 38.3734C340.641 55.7878 300.973 99.6474 284.221 187.234L213.682 209.081C233.303 142.274 279.897 33.3741 362.839 33.3741Z" fill="#95BF46"/>
<path d="M681.895 169.468C657.872 167.663 633.849 165.872 609.824 164.096C609.824 164.096 562.028 116.645 556.782 111.393C554.819 109.439 552.171 108.438 549.404 108.006L510.793 897.765L787.457 837.915C787.457 837.915 690.324 181.233 689.714 176.733C689.095 172.233 685.153 169.742 681.895 169.468Z" fill="#5E8E3E"/>
<path d="M416.842 322.351L382.725 423.835C382.725 423.835 352.834 407.882 316.193 407.882C262.476 407.882 259.773 441.592 259.773 450.086C259.773 496.436 380.595 514.196 380.595 622.763C380.595 708.18 326.42 763.182 253.372 763.182C165.714 763.182 120.887 708.627 120.887 708.627L144.358 631.079C144.358 631.079 190.436 670.639 229.318 670.639C254.725 670.639 265.059 650.635 265.059 636.019C265.059 575.559 165.936 572.862 165.936 473.514C165.936 389.897 225.952 308.98 347.101 308.98C393.781 308.98 416.842 322.351 416.842 322.351Z" fill="white"/>
</svg>
