<svg width="40" height="40" viewBox="0 0 40 40" fill="none" xmlns="http://www.w3.org/2000/svg">
<rect width="40" height="40" rx="9" fill="#95BF46"/>
<path d="M29.4915 11.2395C29.4717 11.0952 29.3454 11.0154 29.241 11.0066C29.1368 10.9979 26.9312 10.8344 26.9312 10.8344C26.9312 10.8344 25.3993 9.3137 25.2313 9.14542C25.063 8.97714 24.7345 9.02832 24.607 9.06589C24.5881 9.07142 24.2723 9.16893 23.7497 9.33053C23.238 7.85819 22.335 6.50504 20.7463 6.50504C20.7025 6.50504 20.6573 6.50688 20.6121 6.50942C20.1603 5.91191 19.6006 5.65234 19.1172 5.65234C15.4164 5.65234 13.6483 10.2787 13.0939 12.6297C11.6559 13.0753 10.6343 13.3921 10.5038 13.4331C9.70113 13.6848 9.67577 13.7102 9.57043 14.4665C9.4909 15.0391 7.39062 31.2816 7.39062 31.2816L23.7564 34.348L32.6241 32.4296C32.6241 32.4296 29.5111 11.3838 29.4915 11.2395ZM22.8452 9.61038C22.4342 9.73763 21.9669 9.88216 21.4604 10.0389C21.4609 9.94141 21.4614 9.84528 21.4614 9.74039C21.4614 8.82523 21.3343 8.08848 21.1306 7.50435C21.9491 7.60716 22.4943 8.53846 22.8452 9.61038ZM20.1151 7.68577C20.3427 8.25607 20.4906 9.07442 20.4906 10.1788C20.4906 10.2353 20.4902 10.287 20.4897 10.3393C19.5891 10.6182 18.6105 10.9211 17.6297 11.2249C18.1804 9.09955 19.2126 8.07304 20.1151 7.68577ZM19.0155 6.64497C19.1753 6.64497 19.3362 6.69914 19.4902 6.80518C18.3042 7.36327 17.0328 8.76898 16.496 11.576C15.7113 11.819 14.9443 12.0564 14.2352 12.2761C14.8641 10.135 16.3574 6.64497 19.0155 6.64497Z" fill="white"/>
<path d="M29.2414 11.0069C29.1372 10.9981 26.9316 10.8347 26.9316 10.8347C26.9316 10.8347 25.3998 9.31396 25.2318 9.14568C25.1688 9.08298 25.084 9.05094 24.9952 9.03711L23.7578 34.348L32.6246 32.4299C32.6246 32.4299 29.5116 11.384 29.492 11.2397C29.4722 11.0954 29.3459 11.0157 29.2414 11.0069Z" fill="#D5F4C0"/>
<path d="M20.7467 15.9061L19.6534 19.1585C19.6534 19.1585 18.6953 18.6472 17.521 18.6472C15.7995 18.6472 15.7128 19.7276 15.7128 19.9999C15.7128 21.4854 19.5851 22.0545 19.5851 25.534C19.5851 28.2714 17.8488 30.0342 15.5077 30.0342C12.6983 30.0342 11.2617 28.2857 11.2617 28.2857L12.0139 25.8005C12.0139 25.8005 13.4906 27.0683 14.7368 27.0683C15.551 27.0683 15.8823 26.4273 15.8823 25.9588C15.8823 24.0211 12.7055 23.9346 12.7055 20.7507C12.7055 18.0709 14.6289 15.4775 18.5116 15.4775C20.0077 15.4775 20.7467 15.9061 20.7467 15.9061Z" fill="#95BF46"/>
</svg>
