<svg width="40" height="40" viewBox="0 0 40 40" fill="none" xmlns="http://www.w3.org/2000/svg">
<g clip-path="url(#clip0_2712_51)">
<mask id="mask0_2712_51" style="mask-type:luminance" maskUnits="userSpaceOnUse" x="0" y="0" width="40" height="40">
<path d="M40 0H0V40H40V0Z" fill="white"/>
</mask>
<g mask="url(#mask0_2712_51)">
<path d="M30.625 0H9.375C4.19733 0 0 4.19733 0 9.375V30.625C0 35.8027 4.19733 40 9.375 40H30.625C35.8027 40 40 35.8027 40 30.625V9.375C40 4.19733 35.8027 0 30.625 0Z" fill="#003179"/>
<path fill-rule="evenodd" clip-rule="evenodd" d="M24.0057 33.8082C26.7846 32.9997 29.2553 31.3721 31.0948 29.1377C32.9343 26.9032 34.0571 24.166 34.3167 21.2833H27.7453C27.3643 25.6698 26.0925 29.9322 24.0078 33.8102L24.0057 33.8082ZM27.7453 18.7165H34.3167C34.0576 15.8338 32.9353 13.0963 31.0962 10.8615C29.257 8.62664 26.7867 6.99848 24.0078 6.18966C26.0925 10.0676 27.3643 14.3301 27.7453 18.7165ZM20.7139 5.64134C23.2051 9.58938 24.7318 14.0686 25.1701 18.7165H14.8303C15.2685 14.0686 16.7951 9.58938 19.2865 5.64134C19.762 5.61825 20.2384 5.61825 20.7139 5.64134ZM15.9906 6.1917C13.2119 7.00041 10.7417 8.62827 8.90264 10.8627C7.06353 13.0971 5.941 15.8341 5.68164 18.7165H12.2531C12.634 14.3301 13.9058 10.0676 15.9906 6.18966V6.1917ZM12.2531 21.2833H5.68164C5.94061 24.166 7.06297 26.9037 8.90209 29.1383C10.7412 31.3732 13.2116 33.0013 15.9906 33.8102C13.9057 29.9322 12.634 25.6698 12.2531 21.2833ZM20.7139 34.3585C20.2376 34.3818 19.7606 34.3818 19.2845 34.3585C16.7939 30.4102 15.2679 25.931 14.8303 21.2833H25.1679C24.7223 25.9594 23.1925 30.4424 20.7139 34.3585Z" fill="url(#paint0_radial_2712_51)"/>
</g>
</g>
<defs>
<radialGradient id="paint0_radial_2712_51" cx="0" cy="0" r="1" gradientUnits="userSpaceOnUse" gradientTransform="translate(30.6007 7.60149) rotate(130.466) scale(32.9477 32.8138)">
<stop stop-color="#48E6FC"/>
<stop offset="1" stop-color="#0057FF"/>
</radialGradient>
<clipPath id="clip0_2712_51">
<rect width="40" height="40" fill="white"/>
</clipPath>
</defs>
</svg>
