<svg width="256" height="256" viewBox="0 0 256 256" fill="none" xmlns="http://www.w3.org/2000/svg">
<g clip-path="url(#clip0_121_386)">
<path d="M196 0H60C26.8629 0 0 26.8629 0 60V196C0 229.137 26.8629 256 60 256H196C229.137 256 256 229.137 256 196V60C256 26.8629 229.137 0 196 0Z" fill="#003179"/>
<path fill-rule="evenodd" clip-rule="evenodd" d="M153.642 216.373C171.427 211.199 187.239 200.782 199.012 186.482C210.785 172.181 217.971 154.663 219.632 136.214L177.575 136.214C175.137 164.287 166.997 191.567 153.655 216.386L153.642 216.373ZM177.575 119.786L219.632 119.786C217.974 101.337 210.791 83.8166 199.021 69.5139C187.25 55.2111 171.44 44.7909 153.655 39.6144C166.997 64.4334 175.137 91.7134 177.575 119.786ZM132.574 36.1052C148.518 61.3726 158.289 90.0399 161.094 119.786L94.9192 119.786C97.7239 90.0399 107.494 61.3726 123.439 36.1052C126.482 35.9574 129.531 35.9574 132.574 36.1052ZM102.345 39.6275C84.5616 44.8032 68.7524 55.2215 56.9822 69.5217C45.2119 83.8218 38.0277 101.339 36.3678 119.786L78.4249 119.786C80.8631 91.7134 89.0024 64.4334 102.345 39.6144L102.345 39.6275ZM78.4249 136.214L36.3678 136.214C38.0252 154.663 45.2083 172.184 56.9787 186.486C68.7492 200.789 84.5597 211.209 102.345 216.386C89.002 191.567 80.8627 164.287 78.4249 136.214ZM132.574 219.895C129.526 220.044 126.473 220.044 123.426 219.895C107.486 194.626 97.7199 165.959 94.9192 136.214L161.08 136.214C158.228 166.141 148.437 194.832 132.574 219.895Z" fill="url(#paint0_radial_121_386)"/>
</g>
<defs>
<radialGradient id="paint0_radial_121_386" cx="0" cy="0" r="1" gradientUnits="userSpaceOnUse" gradientTransform="translate(195.85 48.6501) rotate(130.466) scale(210.865 210.008)">
<stop stop-color="#48E6FC"/>
<stop offset="1" stop-color="#0057FF"/>
</radialGradient>
<clipPath id="clip0_121_386">
<rect width="256" height="256" fill="white"/>
</clipPath>
</defs>
</svg>
